# xmcd
#
# Track frame offsets:
#	150
#	12850
#	25426
#	40031
#	52033
#	65780
#	77986
#	90508
#	103474
#	117096
#	132489
#	145126
#	157358
#	169198
#	182616
#	195295
#
# Disc length: 2781 seconds
#
# Revision: 0
# Processed by: cddbd v1.5.1PL2 Copyright (c) Steve Scherf et al.
# Submitted via: dBpowerAMP V4.0
#
DISCID=e30adb10
DTITLE=John Lee Sonny Boy Williamson - Right Kind Of Life
DYEAR=1900
DGENRE=Blues
TTITLE0=Good Gravy
TTITLE1=Good Gal Blues
TTITLE2=Suzy Q
TTITLE3=She Was A Dreamer
TTITLE4=Springtime Blues
TTITLE5=New Early In The Morning
TTITLE6=My Black Name Blues
TTITLE7=Tell Me Baby
TTITLE8=Good Morning Little School Girl
TTITLE9=The Right Kind Of Life
TTITLE10=I'm Gonna Catch You Soon
TTITLE11=New Early In The Morning
TTITLE12=Got The Bottle Up And Gone
TTITLE13=War Time Blues
TTITLE14=Little Low Woman Blues
TTITLE15=Better Cut That Out
EXTD=
EXTT0=
EXTT1=
EXTT2=
EXTT3=
EXTT4=
EXTT5=
EXTT6=
EXTT7=
EXTT8=
EXTT9=
EXTT10=
EXTT11=
EXTT12=
EXTT13=
EXTT14=
EXTT15=
PLAYORDER=
